<svg width="120" height="45" viewBox="0 0 120 45" fill="none" xmlns="http://www.w3.org/2000/svg">
<path d="M107.983 21.5801H98.0042V33.2225H107.983V21.5801Z" fill="#F0513A"/>
<path d="M107.983 0H98.0042V11.6424H107.983V0Z" fill="#F0513A"/>
<path d="M9.97921 21.5801H0V44.8233H9.97921V21.5801Z" fill="#DB1E3B"/>
<path d="M33.2225 11.6426H0V21.6218H33.2225V11.6426Z" fill="#C5E8F2"/>
<path d="M26.5697 28.2324C17.3805 28.2324 9.97925 35.6752 9.97925 44.8229H19.9585C19.9585 41.1638 22.9106 38.2116 26.5697 38.2116C30.2287 38.2116 33.1809 41.1638 33.1809 44.8229H43.1601C43.2017 35.6752 35.7589 28.2324 26.5697 28.2324Z" fill="#FEC35A"/>
<path d="M53.1809 21.5801H43.2017V44.8233H53.1809V21.5801Z" fill="#5CB5E6"/>
<path d="M76.4241 11.6426H43.2017V21.6218H76.4241V11.6426Z" fill="#DB1E3B"/>
<path d="M119.584 11.6426H86.3618V21.6218H119.584V11.6426Z" fill="#5CB5E6"/>
<path d="M69.7713 28.2324C60.5822 28.2324 53.1809 35.6752 53.1809 44.8229H63.1601C63.1601 41.1638 66.1123 38.2116 69.7713 38.2116C73.4304 38.2116 76.3826 41.1638 76.3826 44.8229H86.3618C86.3618 35.6752 78.919 28.2324 69.7713 28.2324Z" fill="#F0513A"/>
</svg>
