<svg width="120" height="60" viewBox="0 0 120 60" fill="none" xmlns="http://www.w3.org/2000/svg">
<g clip-path="url(#clip0_55_67)">
<path fill-rule="evenodd" clip-rule="evenodd" d="M108.313 33.2295H98.2951V21.6323H86.6973V11.6445H98.2951V0.0349121H108.313V11.6445H119.994V21.6323H108.313V33.2295ZM0 11.6033H0.0351601H10.0184H33.3317V21.5911H10.0184V44.7979H0V11.6033ZM26.6667 28.2741C35.8748 28.2741 43.3149 35.6915 43.3149 44.8714H33.2965C33.2965 41.1994 30.3499 38.2618 26.6667 38.2618C22.9834 38.2618 20.0368 41.1994 20.0368 44.8714H10.0184C10.0184 35.6915 17.4586 28.2741 26.6667 28.2741ZM53.3334 11.6033H43.3149V44.7979H53.3334V21.6484L76.6627 21.6484V11.6606H53.3334V11.6033ZM69.9816 28.2741C79.1897 28.2741 86.6299 35.6915 86.6299 44.8714H76.6115C76.6115 41.1994 73.6649 38.2618 69.9816 38.2618C66.2984 38.2618 63.3518 41.1994 63.3518 44.8714H53.3334C53.3334 35.6915 60.7735 28.2741 69.9816 28.2741ZM57.0902 55.2263C57.0166 55.5201 57.0166 55.8138 57.0166 56.181V59.9999H56.2063V58.017C56.1326 58.1639 55.9853 58.3108 55.7643 58.4577C55.7417 58.4652 55.7199 58.4727 55.6986 58.4801L55.6559 58.4951C55.4884 58.5541 55.3454 58.6045 55.1013 58.6045C54.8066 58.6045 54.512 58.5311 54.291 58.3842C54.07 58.2373 53.9227 58.017 53.7753 57.7967L53.7753 57.7967C53.628 57.5029 53.5543 57.2092 53.5543 56.9154C53.5543 56.5482 53.628 56.2545 53.7753 55.9607C53.9226 55.667 54.07 55.5201 54.2909 55.2998L54.291 55.2998C54.512 55.0794 54.8066 55.0794 55.1013 55.0794C55.3959 55.0794 55.6169 55.1529 55.7643 55.2263C55.9853 55.3732 56.1326 55.5201 56.2063 55.7404L56.2799 55.1529H57.0902V55.2263ZM55.9853 57.7233C56.1326 57.5029 56.2063 57.2826 56.2063 56.9154C56.2063 56.5482 56.1326 56.2545 55.9853 56.1076C55.8379 55.8873 55.6169 55.8138 55.3223 55.8138C55.0276 55.8138 54.8066 55.8873 54.6593 56.1076C54.512 56.3279 54.4383 56.5482 54.4383 56.9154C54.4383 57.2826 54.512 57.5029 54.6593 57.7233C54.8066 57.9436 55.0276 58.017 55.3223 58.017C55.6169 58.017 55.8379 57.8701 55.9853 57.7233ZM61.0681 58.6045V55.2263H60.1842V57.0623C60.1842 57.3561 60.1105 57.5764 59.9632 57.7233C59.8158 57.8701 59.5948 57.9436 59.3738 57.9436C59.1529 57.9436 59.0055 57.9436 58.9319 57.7967C58.8582 57.7233 58.7845 57.503 58.7845 57.2826V55.2263H57.9742V57.2826C57.9742 58.2373 58.4162 58.678 59.2265 58.678C59.4475 58.678 59.6685 58.6045 59.8158 58.5311L59.8445 58.5122L59.8895 58.4828C60.0699 58.3653 60.1927 58.2853 60.2578 58.0905V58.6045H61.0681ZM64.9724 56.9889H62.6151C62.6151 57.3561 62.6888 57.6498 62.9098 57.7967C63.0571 57.9436 63.2781 58.017 63.6464 58.017C64.0147 58.017 64.3831 57.8701 64.6777 57.6498L64.8987 58.2373C64.7514 58.3842 64.5304 58.4577 64.3094 58.5311C64.0884 58.6045 63.8674 58.678 63.5728 58.678C63.0571 58.678 62.6151 58.5311 62.2468 58.2373C61.9521 57.9436 61.8048 57.5029 61.8048 56.9889C61.8048 56.6217 61.8785 56.3279 62.0258 56.1076C62.1731 55.8138 62.3205 55.667 62.6151 55.5201C62.8361 55.3732 63.1308 55.2998 63.4991 55.2998C63.9411 55.2998 64.3094 55.4466 64.6041 55.7404C64.8987 56.0342 64.9724 56.4748 64.9724 56.9889ZM62.9834 55.9607C62.8361 56.1076 62.7624 56.2545 62.6888 56.5482H64.2357C64.2357 56.3279 64.1621 56.1076 64.0147 55.9607C63.8674 55.8138 63.7201 55.7404 63.4991 55.7404C63.2781 55.7404 63.0571 55.8138 62.9834 55.9607ZM70.8656 56.5482C70.8656 56.1076 70.7919 55.7404 70.5709 55.5201C70.4236 55.2998 70.1289 55.1529 69.8343 55.2263C69.6133 55.2263 69.3923 55.2263 69.1713 55.3732C69.0239 55.4466 68.8029 55.5935 68.7293 55.8138C68.582 55.3732 68.2136 55.1529 67.698 55.1529C67.4539 55.1529 67.3109 55.2033 67.1434 55.2623C67.1087 55.2746 67.0729 55.2872 67.035 55.2998C66.814 55.3732 66.6667 55.5201 66.593 55.7404L66.5193 55.2263H65.709C65.7827 55.5201 65.7827 55.8138 65.7827 56.181V58.6045H66.593V56.6951C66.593 56.4014 66.6667 56.181 66.814 56.0342C66.8877 55.8873 67.1087 55.8138 67.3297 55.8138C67.5506 55.8138 67.698 55.8138 67.7716 55.9607C67.8453 56.1076 67.919 56.2545 67.919 56.5482V58.6045H68.7293V56.6951C68.7293 56.4014 68.8029 56.181 68.9503 56.0342C69.0239 55.8873 69.2449 55.8138 69.4659 55.8138C69.6869 55.8138 69.8343 55.8138 69.9079 55.9607C69.9816 56.1076 70.0552 56.2545 70.0552 56.5482V58.6045H70.8656V56.5482ZM73.7385 57.6498C74.1068 57.9436 74.4752 58.017 74.9908 58.017C75.2118 58.017 75.3591 58.017 75.4328 57.9436C75.5065 57.8701 75.5801 57.7967 75.5801 57.6498C75.5801 57.5764 75.5065 57.5029 75.4328 57.4295C75.3591 57.3561 75.2118 57.2826 75.0645 57.2826L74.4752 57.1358C73.8858 56.9889 73.5175 56.6951 73.5175 56.181C73.5175 55.9607 73.5912 55.8138 73.6648 55.667C73.8122 55.5201 73.9595 55.3732 74.1805 55.2998C74.4015 55.2263 74.6225 55.1529 74.9171 55.1529C75.1381 55.1529 75.3591 55.1529 75.5801 55.2263C75.8011 55.2998 76.0221 55.3732 76.1694 55.5201L75.9484 56.1076C75.5801 55.8873 75.2855 55.7404 74.9171 55.7404C74.6961 55.7404 74.5488 55.7404 74.4752 55.8138C74.4015 55.8873 74.3278 55.9607 74.3278 56.1076C74.3278 56.181 74.3278 56.2545 74.4015 56.3279C74.447 56.3733 74.4925 56.3906 74.5555 56.4146C74.5943 56.4294 74.6399 56.4468 74.6961 56.4748L75.2855 56.6217C75.6538 56.6951 75.8748 56.842 76.0221 56.9889C76.1694 57.1357 76.2431 57.3561 76.2431 57.5764C76.2431 57.8701 76.0958 58.1639 75.8748 58.3108C75.6538 58.4577 75.2855 58.6045 74.8435 58.6045C74.3278 58.678 73.8858 58.5311 73.5175 58.2373L73.7385 57.6498ZM80.3683 58.6045V55.2263H79.558V55.7404C79.4844 55.5201 79.337 55.3732 79.116 55.2998C78.895 55.2263 78.674 55.1529 78.453 55.1529C78.1584 55.1529 77.8637 55.1529 77.6427 55.3732C77.4217 55.5935 77.2744 55.7404 77.1271 56.0342C76.9798 56.3279 76.9061 56.6217 76.9061 56.9889C76.9061 57.2826 76.9798 57.5764 77.1271 57.8701C77.2744 58.0905 77.4217 58.3108 77.6427 58.4577C77.8637 58.6045 78.1584 58.678 78.453 58.678C78.674 58.678 78.895 58.6045 79.116 58.5311C79.337 58.4577 79.4844 58.3108 79.558 58.0905V58.6045H80.3683ZM79.558 56.9154C79.558 57.2826 79.4844 57.5029 79.337 57.7233L79.3136 57.739C79.285 57.7585 79.2575 57.7778 79.2307 57.7967L79.2301 57.7971L79.2294 57.7976L79.2287 57.7981C79.0611 57.9162 78.9182 58.017 78.674 58.017C78.3794 58.017 78.1584 57.9436 78.0111 57.7233C77.8637 57.5029 77.7901 57.2826 77.7901 56.9154C77.7901 56.5482 77.8637 56.3279 78.0111 56.1076C78.1584 55.8873 78.3794 55.8138 78.674 55.8138C78.9687 55.8138 79.1897 55.8873 79.337 56.1076C79.4844 56.2545 79.558 56.5482 79.558 56.9154ZM84.0516 55.3732C84.2726 55.5201 84.4199 55.7404 84.5672 55.9607C84.7145 56.2545 84.7882 56.5482 84.7882 56.842C84.7882 57.2092 84.7145 57.5029 84.5672 57.7967C84.4199 58.0905 84.2726 58.2373 84.0516 58.3842C83.8306 58.5311 83.5359 58.6045 83.3149 58.6045C83.0939 58.6045 82.8729 58.5311 82.6519 58.4577C82.4309 58.3842 82.2836 58.2373 82.2099 58.017V58.6045H81.3996V53.6841H82.2099V55.7404C82.2836 55.5201 82.4309 55.3732 82.6519 55.2998L82.652 55.2997C82.873 55.2263 83.0939 55.1529 83.3149 55.1529C83.5359 55.1529 83.8306 55.2263 84.0516 55.3732ZM83.6832 57.7233C83.8306 57.5029 83.9042 57.2826 83.9042 56.9154C83.9042 56.5482 83.8306 56.3279 83.6832 56.1076C83.5359 55.8873 83.3149 55.8138 83.0202 55.8138C82.7256 55.8138 82.5046 55.8873 82.3573 56.1076C82.2099 56.3279 82.1363 56.5482 82.1363 56.9154C82.1363 57.2826 82.2099 57.5764 82.3573 57.7233C82.5046 57.9436 82.7256 58.017 83.0202 58.017C83.3149 58.017 83.5359 57.8701 83.6832 57.7233ZM86.1879 56.9889H88.4715H88.5451C88.5451 56.4748 88.4715 56.0342 88.1768 55.7404C87.8821 55.4466 87.5138 55.2998 87.0718 55.2998C86.7035 55.2998 86.4089 55.3732 86.1879 55.5201C85.8932 55.667 85.7459 55.8138 85.5985 56.1076C85.4512 56.3279 85.3775 56.6217 85.3775 56.9889C85.3775 57.5029 85.5249 57.9436 85.8195 58.2373C86.1879 58.5311 86.6299 58.678 87.1455 58.678C87.4402 58.678 87.6612 58.6045 87.8821 58.5311C88.1031 58.4577 88.3241 58.3842 88.4715 58.2373L88.2505 57.6498C87.9558 57.8701 87.5875 58.017 87.2192 58.017C86.8508 58.017 86.6298 57.9436 86.4825 57.7967C86.2615 57.6498 86.1879 57.3561 86.1879 56.9889ZM86.1879 56.5482C86.2615 56.2545 86.3352 56.1076 86.4825 55.9607C86.6298 55.8138 86.7772 55.7404 86.9982 55.7404C87.2192 55.7404 87.3665 55.8138 87.5138 55.9607C87.6612 56.1076 87.7348 56.3279 87.7348 56.5482H86.1879ZM90.0921 57.6498V58.2373C90.0921 58.4576 90.0184 58.6779 89.9448 58.8982L89.9447 58.8983C89.8711 59.1186 89.7237 59.2655 89.5027 59.4858L89.1344 59.192C89.3143 59.0127 89.3966 58.8334 89.4607 58.6937C89.4753 58.6618 89.489 58.6319 89.5027 58.6045H89.1344V57.6498H90.0921ZM93.9226 55.2263V54.9326C93.9226 54.5654 94.1436 54.3451 94.512 54.3451C94.5425 54.3451 94.573 54.3577 94.6087 54.3724C94.6593 54.3933 94.7203 54.4185 94.8066 54.4185V53.7575C94.6593 53.6841 94.512 53.6841 94.291 53.6841C93.9226 53.6841 93.628 53.7575 93.407 53.9779C93.186 54.1982 93.1123 54.5654 93.1123 54.9326V55.2263H92.4493V55.8873H93.1123V58.6045H93.9226V55.8873H94.6593V55.2263H93.9226ZM98.6372 55.2263V58.6045H97.8269V58.0905C97.7532 58.3108 97.6059 58.4577 97.3849 58.5311C97.1639 58.6045 96.9429 58.678 96.7219 58.678C96.4273 58.678 96.1326 58.6045 95.9116 58.4577C95.6906 58.3108 95.5433 58.0905 95.3959 57.8701C95.2486 57.5764 95.1749 57.2826 95.1749 56.9889C95.1749 56.6217 95.2486 56.3279 95.3959 56.0342C95.5433 55.7404 95.6906 55.5935 95.9116 55.3732C96.1326 55.1529 96.4273 55.1529 96.7219 55.1529C96.9429 55.1529 97.1639 55.2263 97.3849 55.2998C97.6059 55.3732 97.7532 55.5201 97.8269 55.7404V55.2263H98.6372ZM97.5322 57.7233C97.6795 57.5029 97.7532 57.2826 97.7532 56.9154C97.7532 56.5482 97.6795 56.2545 97.5322 56.1076C97.3849 55.8873 97.1639 55.8138 96.8692 55.8138C96.5746 55.8138 96.3536 55.8873 96.2063 56.1076C96.0589 56.3279 95.9853 56.5482 95.9853 56.9154C95.9853 57.2826 96.0589 57.5029 96.2063 57.7233C96.3536 57.9436 96.5746 58.017 96.8692 58.017C97.1639 58.017 97.3849 57.8701 97.5322 57.7233ZM102.32 57.9436H100.405L102.173 55.8139V55.2263H99.3739V55.8873H101.215L99.3739 58.017V58.6046H102.32V57.9436ZM107.772 55.3732C107.993 55.5201 108.14 55.7404 108.287 55.9607C108.435 56.2545 108.508 56.5482 108.508 56.842C108.508 57.2092 108.435 57.5029 108.287 57.7967C108.14 58.0905 107.993 58.2373 107.772 58.3842C107.551 58.5311 107.256 58.6045 107.035 58.6045C106.814 58.6045 106.593 58.5311 106.372 58.4577C106.151 58.3842 106.004 58.2373 105.93 58.017V58.6045H105.12V53.6841H105.93V55.7404C106.004 55.5201 106.151 55.3732 106.372 55.2998C106.593 55.2263 106.814 55.1529 107.035 55.1529C107.256 55.1529 107.551 55.2263 107.772 55.3732ZM107.403 57.7233C107.551 57.5029 107.624 57.2826 107.624 56.9154C107.624 56.5482 107.551 56.3279 107.403 56.1076C107.256 55.8873 107.035 55.8138 106.74 55.8138C106.446 55.8138 106.225 55.8873 106.077 56.1076C105.93 56.3279 105.856 56.5482 105.856 56.9154C105.856 57.2826 105.93 57.5764 106.077 57.7233C106.225 57.9436 106.446 58.017 106.74 58.017C107.035 58.017 107.256 57.8701 107.403 57.7233ZM109.834 56.9889H112.192C112.192 56.4748 112.118 56.0342 111.823 55.7404C111.529 55.4466 111.16 55.2998 110.718 55.2998C110.35 55.2998 110.055 55.3732 109.834 55.5201C109.54 55.667 109.392 55.8138 109.245 56.1076C109.098 56.3279 109.024 56.6217 109.024 56.9889C109.024 57.5029 109.171 57.9436 109.466 58.2373C109.834 58.5311 110.276 58.678 110.792 58.678C111.087 58.678 111.308 58.6045 111.529 58.5311C111.75 58.4577 111.971 58.3842 112.118 58.2373L111.897 57.6498C111.602 57.8701 111.234 58.017 110.866 58.017C110.497 58.017 110.276 57.9436 110.129 57.7967C109.908 57.6498 109.834 57.3561 109.834 56.9889ZM109.908 56.5482C109.982 56.2545 110.055 56.1076 110.203 55.9607C110.35 55.8138 110.497 55.7404 110.718 55.7404C110.939 55.7404 111.087 55.8138 111.234 55.9607C111.381 56.1076 111.455 56.3279 111.455 56.5482H109.908ZM117.79 55.5201C118.011 55.7404 118.085 56.1076 118.085 56.5482V58.6045H117.274V56.5482C117.274 56.2545 117.201 56.1076 117.127 55.9607C117.053 55.8138 116.906 55.8138 116.685 55.8138C116.464 55.8138 116.243 55.8873 116.169 56.0342C116.022 56.181 115.948 56.4014 115.948 56.6951V58.6045H115.138V56.5482C115.138 56.2545 115.064 56.1076 114.991 55.9607C114.917 55.8138 114.77 55.8138 114.549 55.8138C114.328 55.8138 114.107 55.8873 114.033 56.0342C113.886 56.181 113.812 56.4014 113.812 56.6951V58.6045H113.002V56.181C113.002 55.8138 113.002 55.5201 112.928 55.2263H113.738L113.812 55.7404C113.886 55.5201 114.033 55.3732 114.254 55.2998C114.292 55.2872 114.328 55.2747 114.362 55.2625L114.363 55.2623C114.53 55.2033 114.673 55.1529 114.917 55.1529C115.433 55.1529 115.801 55.3732 115.948 55.8138C116.022 55.5935 116.243 55.4466 116.39 55.3732C116.611 55.2263 116.832 55.2263 117.053 55.2263C117.348 55.1529 117.643 55.2998 117.79 55.5201ZM119.926 57.6498H118.969V58.6045H119.926V57.6498Z" fill="white"/>
</g>
<defs>
<clipPath id="clip0_55_67">
<rect width="120" height="60" fill="white"/>
</clipPath>
</defs>
</svg>
